<svg width="200" height="200" viewBox="0 0 200 200" fill="none" xmlns="http://www.w3.org/2000/svg">
  <!-- Background Circle -->
  <circle cx="100" cy="100" r="90" fill="#1E3A8A" opacity="0.1"/>
  
  <!-- Pulse/Heartbeat Line -->
  <path d="M30 100 L50 100 L60 80 L70 120 L80 60 L90 100 L100 100 L110 100 L120 140 L130 60 L140 100 L150 100 L170 100" 
        stroke="#BAE6FD" stroke-width="4" stroke-linecap="round" stroke-linejoin="round" fill="none"/>
  
  <!-- Heart Icon -->
  <path d="M100 150 C100 150 70 130 70 110 C70 95 80 85 90 85 C95 85 100 90 100 90 C100 90 105 85 110 85 C120 85 130 95 130 110 C130 130 100 150 100 150 Z" 
        fill="#1E3A8A"/>
  
  <!-- Dumbbell Icon -->
  <g transform="translate(85, 30)">
    <rect x="0" y="8" width="6" height="14" rx="2" fill="#1E3A8A"/>
    <rect x="24" y="8" width="6" height="14" rx="2" fill="#1E3A8A"/>
    <rect x="6" y="13" width="18" height="4" rx="1" fill="#1E3A8A"/>
    <circle cx="3" cy="12" r="3" fill="#BAE6FD"/>
    <circle cx="3" cy="18" r="3" fill="#BAE6FD"/>
    <circle cx="27" cy="12" r="3" fill="#BAE6FD"/>
    <circle cx="27" cy="18" r="3" fill="#BAE6FD"/>
  </g>
  
  <!-- Text: PulseTrack -->
  <text x="100" y="180" font-family="Arial, sans-serif" font-size="18" font-weight="bold" text-anchor="middle" fill="#1E3A8A">PulseTrack</text>
</svg>
